<?xml version="1.0" standalone="no"?><!DOCTYPE svg PUBLIC "-//W3C//DTD SVG 1.1//EN" "http://www.w3.org/Graphics/SVG/1.1/DTD/svg11.dtd"><svg t="1738673020204" class="icon" viewBox="0 0 1024 1024" version="1.1" xmlns="http://www.w3.org/2000/svg" p-id="4457" xmlns:xlink="http://www.w3.org/1999/xlink" width="200" height="200"><path d="M753.9 437.8m-93.9 0a93.9 93.9 0 1 0 187.8 0 93.9 93.9 0 1 0-187.8 0Z" fill="#83FCE5" p-id="4458"></path><path d="M753.9 353.9c46.3 0 83.9 37.7 83.9 83.9s-37.7 83.9-83.9 83.9-83.9-37.6-83.9-83.9 37.6-83.9 83.9-83.9m0-10c-51.9 0-93.9 42.1-93.9 93.9s42.1 93.9 93.9 93.9 93.9-42.1 93.9-93.9-42-93.9-93.9-93.9z" fill="#3983FD" p-id="4459"></path><path d="M866.9 564.3m-33.4 0a33.4 33.4 0 1 0 66.8 0 33.4 33.4 0 1 0-66.8 0Z" fill="#3983FD" p-id="4460"></path><path d="M866.9 551c7.4 0 13.4 6 13.4 13.4s-6 13.4-13.4 13.4-13.4-6-13.4-13.4 6-13.4 13.4-13.4m0-20c-18.4 0-33.4 14.9-33.4 33.4s14.9 33.4 33.4 33.4c18.4 0 33.4-14.9 33.4-33.4s-15-33.4-33.4-33.4z" fill="#3983FD" p-id="4461"></path><path d="M740.1 597.7m-33.4 0a33.4 33.4 0 1 0 66.8 0 33.4 33.4 0 1 0-66.8 0Z" fill="#3983FD" p-id="4462"></path><path d="M740.1 584.3c7.4 0 13.4 6 13.4 13.4s-6 13.4-13.4 13.4-13.4-6-13.4-13.4 6.1-13.4 13.4-13.4m0-20c-18.4 0-33.4 14.9-33.4 33.4s14.9 33.4 33.4 33.4c18.4 0 33.4-14.9 33.4-33.4s-14.9-33.4-33.4-33.4zM269.3 227.2c-0.3 0-0.6 0-1-0.1l-41.8-8.2 0.1-4.2c0-0.5 0.4-13.3 13.1-24.8 16.1-14.6 43.7-20.6 82.1-17.7 120.5 9.1 162.3-20.6 202.7-49.3 10.4-7.4 21.2-15.1 33.2-22 2.4-1.4 5.5-0.6 6.8 1.8 1.4 2.4 0.6 5.4-1.8 6.8-11.5 6.6-21.7 13.8-32.4 21.5-36.6 26-74.3 52.9-166.5 52.9-13.1 0-27.3-0.5-42.7-1.7-44.3-3.3-65.1 6.4-74.7 15.1-5.5 5-7.9 10.2-9 13.6l32.8 6.5c2.7 0.5 4.5 3.2 3.9 5.9-0.3 2.3-2.4 3.9-4.8 3.9z" fill="#3983FD" p-id="4463"></path><path d="M855.6 823.6c-57.8 0-113.6-80.9-157.4-124.2l-14.8-14.6c-144.9-143.3-198-143.3-343.1-0.7l-28.1 27.6c-36 35.3-81.8 111.9-129.2 111.9-7.3 0-13.3 2.4-18.1 6.5 5.9 1 12 1.6 18.1 1.6 47.4 0 93.2-19.4 129.2-54.8l28.1-27.6c145.1-142.6 198.3-142.6 343.1 0.7l14.8 14.6c43.8 43.3 99.6 67.1 157.4 67.1 3.8 0 7.6-0.3 11.3-0.7-1.2-4.7-4.8-7.4-11.3-7.4z" fill="#83FCE5" p-id="4464"></path><path d="M511.7 587.3c22.4 0 45.2 8 71.8 25.3 25.2 16.3 53.8 40.8 92.8 79.4l14.8 14.6c9.6 9.5 20 21 30.9 33.2 23.9 26.6 49.7 55.4 77.3 73.9-34.5-10-66.8-29.1-94.1-56.2l-14.8-14.6c-68.9-68.2-122.8-110.4-178.7-110.4-55.6 0-109.6 42-178.5 109.7l-28.1 27.6c-21.9 21.5-47.6 36.8-75 45 20.8-15.8 40.3-39.2 58.3-61 10.9-13.2 21.3-25.6 30.7-34.9l28.1-27.6c39-38.3 67.6-62.6 92.8-78.9 26.6-17.1 49.4-25.1 71.7-25.1m0-10c-49.5 0-99 35.6-171.5 106.9l-28.1 27.6c-36 35.3-81.8 111.9-129.2 111.9-7.3 0-13.3 2.4-18.1 6.5 5.9 1 12 1.6 18.1 1.6 47.4 0 93.2-19.4 129.2-54.8l28.1-27.6c72.5-71.2 122-106.9 171.5-106.9 49.6 0 99.1 35.8 171.6 107.5l14.8 14.6c43.8 43.3 99.6 67.1 157.4 67.1 3.8 0 7.6-0.3 11.3-0.7-1.2-4.7-4.8-7.4-11.3-7.4-57.8 0-113.6-80.9-157.4-124.2l-14.8-14.6c-72.4-71.7-122-107.5-171.6-107.5z" fill="#3983FD" p-id="4465"></path><path d="M184.2 228.6l231 16.1c32.1 2.2 64.6 3.4 96.7 3.4 32.3 0 65-1.1 97.2-3.4l229.4-16.1c54.5 0.4 98.8 52.7 98.8 117V715c0 53.3-36.7 96.7-81.7 96.7-52.5 0-103.4-21.8-143.3-61.3l-14.8-14.6c-70.7-70-126.5-113.3-185.7-113.3-59 0-114.8 43.1-185.5 112.6l-28.1 27.6c-32.2 31.6-73.1 49-115.1 49-53.8 0-97.5-51.5-97.5-114.8V345.6c-0.2-64.3 44-116.6 98.6-117m653.6-20l-230.1 16.1c-31.9 2.2-63.9 3.4-95.8 3.4-31.8 0-63.6-1.1-95.3-3.3l-231.7-16.2c-66 0-119.4 61.3-119.4 137v351.3c0 74.5 52.6 134.8 117.5 134.8 47.4 0 93.2-19.4 129.2-54.8l28.1-27.6c72.5-71.2 122-106.9 171.5-106.9 49.6 0 99.1 35.8 171.6 107.5l14.8 14.6c43.8 43.3 99.6 67.1 157.4 67.1 56.2 0 101.7-52.2 101.7-116.7V345.6c0-75.7-53.5-137-119.5-137z" fill="#3983FD" p-id="4466"></path><path d="M266 550.9V365.8c0-11 9-20 20-20h5.7c11 0 20 9 20 20v185.1c0 11-9 20-20 20H286c-11.1 0-20-9-20-20z" fill="#3983FD" p-id="4467"></path><path d="M291.6 365.8v185.1H286V365.8h5.6m0-20H286c-11 0-20 9-20 20v185.1c0 11 9 20 20 20h5.7c11 0 20-9 20-20V365.8c-0.1-11.1-9-20-20.1-20z" fill="#3983FD" p-id="4468"></path><path d="M196.2 435.5h185.1c11 0 20 9 20 20v5.7c0 11-9 20-20 20H196.2c-11 0-20-9-20-20v-5.7c0-11 9-20 20-20z" fill="#3983FD" p-id="4469"></path><path d="M381.4 455.5v5.7H196.2v-5.7h185.2m0-20H196.2c-11 0-20 9-20 20v5.7c0 11 9 20 20 20h185.1c11 0 20-9 20-20v-5.7c0.1-11-8.9-20-19.9-20z" fill="#3983FD" p-id="4470"></path></svg>